# xmcd CD database file
#
# Track frame offsets:
#	180
#	17994
#	31925
#	49489
#	69309
#	91013
#	108973
#	126149
#	147244
#	164720
#	189835
#	206175
#	227374
#	243904
#
# Disc length: 3601 seconds
#
# Revision: 1
# Processed by: cddbd v1.5.2PL0 Copyright (c) Steve Scherf et al.
# Submitted via: CDex 1.70beta2
#
DISCID=ba0e0f0e
DTITLE=ירמי קפלן והפרחים - ירמי קפלן והפרחים
DYEAR=1994
DGENRE=Israeli
TTITLE0=הכל עצור
TTITLE1=אחת ושתיים
TTITLE2=מודדת
TTITLE3=אסתי
TTITLE4=הרבה דברים
TTITLE5=המעגל
TTITLE6=יש עיוות
TTITLE7=מחטט
TTITLE8=כשאת שותה
TTITLE9=לשקר ולשכוח
TTITLE10=שרוף את זה
TTITLE11=מדוע לא באת
TTITLE12=משהו חייב להשתנות
TTITLE13=שיר בונוס
EXTD=YEAR: 1994
EXTT0=
EXTT1=
EXTT2=
EXTT3=
EXTT4=
EXTT5=
EXTT6=
EXTT7=
EXTT8=
EXTT9=
EXTT10=
EXTT11=
EXTT12=
EXTT13=
PLAYORDER=
